<?xml version="1.0" encoding="utf-8"?>
<!-- Generator: Adobe Illustrator 26.0.1, SVG Export Plug-In . SVG Version: 6.00 Build 0)  -->
<svg version="1.1" id="Layer_1" xmlns="http://www.w3.org/2000/svg" xmlns:xlink="http://www.w3.org/1999/xlink" x="0px" y="0px"
	 viewBox="0 0 841.89 595.28" style="enable-background:new 0 0 841.89 595.28;" xml:space="preserve">
<style type="text/css">
	.st0{clip-path:url(#SVGID_00000126315488884947797960000004585564835590585251_);}
	.st1{fill:#2484C7;}
</style>
<g>
	<defs>
		<rect id="SVGID_1_" y="0" width="841.89" height="595.28"/>
	</defs>
	<clipPath id="SVGID_00000114050890731178774090000006390049734870815623_">
		<use xlink:href="#SVGID_1_"  style="overflow:visible;"/>
	</clipPath>
	<g style="clip-path:url(#SVGID_00000114050890731178774090000006390049734870815623_);">
		<g>
			<g>
				<polygon class="st1" points="329.6,193.04 225.57,193.04 181.72,149.18 104.39,149.18 43.74,88.53 44.23,88.05 104.68,148.5 
					182,148.5 225.86,192.36 329.6,192.36 				"/>
			</g>
			<g>
				<path class="st1" d="M329.47,190.12c1.42,0,2.57,1.15,2.57,2.57s-1.15,2.57-2.57,2.57c-1.42,0-2.57-1.15-2.57-2.57
					S328.05,190.12,329.47,190.12z"/>
			</g>
			<g>
				<path class="st1" d="M45.9,86.56c-1.01-1-2.63-1-3.64,0c-1.01,1-1.01,2.63,0,3.64c1,1,2.63,1,3.64,0
					C46.9,89.2,46.9,87.57,45.9,86.56z"/>
			</g>
		</g>
		<g>
			<g>
				<polygon class="st1" points="8.19,523.11 -62.06,523.11 -62.06,522.42 7.9,522.42 46.6,483.72 123.93,483.72 167.78,439.87 
					274.11,439.87 313.27,400.71 313.75,401.19 274.4,440.55 168.07,440.55 124.21,484.41 46.89,484.41 				"/>
			</g>
			<g>
				<path class="st1" d="M311.6,399.22c1.01-1,2.63-1,3.64,0c1.01,1,1.01,2.63,0,3.64c-1,1-2.63,1-3.64,0
					C310.6,401.85,310.6,400.23,311.6,399.22z"/>
			</g>
			<g>
				<circle class="st1" cx="-61.93" cy="522.77" r="2.57"/>
			</g>
		</g>
		<g>
			<g>
				<polygon class="st1" points="361.45,244.38 326.03,208.96 204.25,208.96 167.83,172.54 118.9,172.54 99.3,192.14 -48.94,192.14 
					-48.94,191.45 99.02,191.45 118.62,171.85 168.11,171.85 204.53,208.27 326.31,208.27 361.93,243.9 				"/>
			</g>
			<g>
				<circle class="st1" cx="361.6" cy="244.05" r="2.57"/>
			</g>
			<g>
				<circle class="st1" cx="-48.81" cy="191.8" r="2.57"/>
			</g>
		</g>
		<g>
			<g>
				<polygon class="st1" points="264.54,431.07 223.39,431.07 192.94,400.63 133.31,400.63 103.63,370.95 14.68,370.95 
					14.68,370.26 103.91,370.26 133.59,399.94 193.23,399.94 223.67,430.38 264.26,430.38 306.08,388.56 306.56,389.05 				"/>
			</g>
			<g>
				<path class="st1" d="M304.41,387.08c1-1.01,2.63-1.01,3.64,0c1,1,1,2.63,0,3.64c-1,1-2.63,1-3.64,0
					C303.4,389.71,303.4,388.08,304.41,387.08z"/>
			</g>
			<g>
				<circle class="st1" cx="14.81" cy="370.6" r="2.57"/>
			</g>
		</g>
		<g>
			<g>
				<polygon class="st1" points="357,261.04 322.41,226.44 206.48,226.44 167.69,187.66 132.25,187.66 103.82,216.09 -7.8,216.09 
					-7.8,215.4 103.54,215.4 131.97,186.98 167.97,186.98 206.76,225.76 322.69,225.76 357.49,260.55 				"/>
			</g>
			<g>
				<path class="st1" d="M-7.67,218.32c-1.42,0-2.57-1.15-2.57-2.57c0-1.42,1.15-2.57,2.57-2.57s2.57,1.15,2.57,2.57
					C-5.09,217.17-6.25,218.32-7.67,218.32z"/>
			</g>
			<g>
				<path class="st1" d="M355.33,262.52c1,1,2.63,1,3.64,0c1.01-1,1.01-2.63,0-3.64c-1.01-1-2.63-1-3.64,0
					C354.33,259.89,354.33,261.52,355.33,262.52z"/>
			</g>
		</g>
		<g>
			<g>
				<polygon class="st1" points="259.3,397.15 208.93,397.15 150.56,338.78 30.17,338.78 1.13,367.82 0.65,367.33 29.88,338.1 
					150.84,338.1 209.21,396.47 259.02,396.47 287.66,367.83 339.29,367.83 339.29,368.51 287.94,368.51 				"/>
			</g>
			<g>
				<path class="st1" d="M339.16,365.6c1.42,0,2.57,1.15,2.57,2.57c0,1.42-1.15,2.57-2.57,2.57c-1.42,0-2.57-1.15-2.57-2.57
					C336.59,366.75,337.74,365.6,339.16,365.6z"/>
			</g>
			<g>
				<path class="st1" d="M-0.84,365.67c-1,1-1,2.63,0,3.64c1.01,1,2.63,1,3.64,0c1-1,1-2.63,0-3.64
					C1.79,364.66,0.16,364.66-0.84,365.67z"/>
			</g>
		</g>
		<g>
			<g>
				<polygon class="st1" points="270.43,409.11 242.7,409.11 242.7,408.42 270.14,408.42 301.68,376.89 302.16,377.37 				"/>
			</g>
			<g>
				<path class="st1" d="M300.01,375.4c1-1,2.63-1,3.64,0c1.01,1,1.01,2.63,0,3.64c-1,1-2.63,1-3.64,0
					C299,378.04,299,376.41,300.01,375.4z"/>
			</g>
			<g>
				<circle class="st1" cx="242.83" cy="408.76" r="2.57"/>
			</g>
		</g>
		<g>
			<g>
				<polygon class="st1" points="357,281.61 319.91,244.52 215.37,244.52 180.34,209.48 122.24,209.48 91.94,239.79 -33.74,239.79 
					-70.89,202.63 -70.41,202.15 -33.45,239.11 91.65,239.11 121.96,208.8 180.62,208.8 215.66,243.83 320.19,243.83 357.49,281.13 
									"/>
			</g>
			<g>
				<path class="st1" d="M358.97,279.46c1.01,1,1.01,2.63,0,3.64c-1,1-2.63,1-3.64,0c-1-1-1-2.63,0-3.64
					C356.34,278.45,357.97,278.45,358.97,279.46z"/>
			</g>
			<g>
				<path class="st1" d="M-68.74,200.66c-1.01-1-2.63-1-3.64,0c-1,1-1,2.63,0,3.64c1,1,2.63,1,3.64,0
					C-67.73,203.3-67.73,201.67-68.74,200.66z"/>
			</g>
		</g>
		<g>
			<g>
				<polygon class="st1" points="341.43,288.84 311.29,258.69 217.6,258.69 181.04,222.13 124.46,222.13 78.4,268.2 77.92,267.71 
					124.18,221.45 181.32,221.45 217.88,258.01 311.57,258.01 341.92,288.35 				"/>
			</g>
			<g>
				<path class="st1" d="M343.4,286.69c1,1,1,2.63,0,3.64c-1,1-2.63,1-3.64,0c-1.01-1-1.01-2.63,0-3.64
					C340.77,285.68,342.4,285.68,343.4,286.69z"/>
			</g>
			<g>
				<circle class="st1" cx="78.25" cy="267.86" r="2.57"/>
			</g>
		</g>
		<g>
			<g>
				<polygon class="st1" points="239.57,379.63 204.48,379.63 137.63,312.79 -39.82,312.79 -39.82,312.1 137.92,312.1 
					204.76,378.95 239.28,378.95 264.3,353.93 332.14,353.93 361.45,324.62 361.93,325.1 332.42,354.61 264.59,354.61 				"/>
			</g>
			<g>
				<path class="st1" d="M359.78,323.13c1-1,2.63-1,3.64,0c1.01,1,1.01,2.63,0,3.64c-1,1-2.63,1-3.64,0
					C358.78,325.77,358.78,324.14,359.78,323.13z"/>
			</g>
			<g>
				<path class="st1" d="M-39.69,309.87c-1.42,0-2.57,1.15-2.57,2.57c0,1.42,1.15,2.57,2.57,2.57c1.42,0,2.57-1.15,2.57-2.57
					C-37.11,311.02-38.27,309.87-39.69,309.87z"/>
			</g>
		</g>
		<g>
			<g>
				<polygon class="st1" points="206.2,299.56 182.37,299.56 182.37,298.88 205.92,298.88 227.61,277.19 308.71,277.19 
					308.71,277.88 227.89,277.88 				"/>
			</g>
			<g>
				<path class="st1" d="M308.58,274.96c1.42,0,2.57,1.15,2.57,2.57c0,1.42-1.15,2.57-2.57,2.57c-1.42,0-2.57-1.15-2.57-2.57
					C306.01,276.12,307.16,274.96,308.58,274.96z"/>
			</g>
			<g>
				<circle class="st1" cx="182.5" cy="299.22" r="2.57"/>
			</g>
		</g>
		<g>
			<g>
				<polygon class="st1" points="204.65,278.27 171.44,245.07 123.43,245.07 123.43,244.39 171.73,244.39 205.13,277.79 				"/>
			</g>
			<g>
				<path class="st1" d="M206.62,276.12c1,1.01,1,2.63,0,3.64c-1,1-2.63,1-3.64,0c-1-1-1-2.63,0-3.64
					C203.98,275.12,205.61,275.12,206.62,276.12z"/>
			</g>
			<g>
				<path class="st1" d="M123.56,242.16c-1.42,0-2.57,1.15-2.57,2.57c0,1.42,1.15,2.57,2.57,2.57s2.57-1.15,2.57-2.57
					C126.13,243.31,124.98,242.16,123.56,242.16z"/>
			</g>
		</g>
		<g>
			<g>
				<polygon class="st1" points="182.41,281.61 159.21,258.42 116.76,258.42 116.76,257.73 159.5,257.73 182.89,281.13 				"/>
			</g>
			<g>
				<circle class="st1" cx="182.56" cy="281.28" r="2.57"/>
			</g>
			<g>
				<circle class="st1" cx="116.89" cy="258.07" r="2.57"/>
			</g>
		</g>
		<g>
			<g>
				<rect x="-37.59" y="378.7" class="st1" width="29.59" height="0.68"/>
			</g>
			<g>
				<circle class="st1" cx="-8.14" cy="379.04" r="2.57"/>
			</g>
			<g>
				<path class="st1" d="M-37.46,376.47c-1.42,0-2.57,1.15-2.57,2.57c0,1.42,1.15,2.57,2.57,2.57c1.42,0,2.57-1.15,2.57-2.57
					C-34.89,377.62-36.04,376.47-37.46,376.47z"/>
			</g>
		</g>
		<g>
			<g>
				<polygon class="st1" points="165.95,383.12 136.09,353.25 40.25,353.25 40.25,352.57 136.37,352.57 166.44,382.63 				"/>
			</g>
			<g>
				<path class="st1" d="M167.92,380.96c1,1,1,2.63,0,3.64c-1,1-2.63,1-3.64,0c-1-1-1-2.63,0-3.64
					C165.29,379.96,166.92,379.96,167.92,380.96z"/>
			</g>
			<g>
				<circle class="st1" cx="40.38" cy="352.91" r="2.57"/>
			</g>
		</g>
		<g>
			<g>
				<polygon class="st1" points="8.48,505.61 -56.5,505.61 -56.5,504.92 8.2,504.92 57.69,455.44 114.4,455.44 146.65,423.18 
					207.74,423.18 207.74,423.87 146.94,423.87 114.68,456.12 57.97,456.12 				"/>
			</g>
			<g>
				<circle class="st1" cx="207.61" cy="423.53" r="2.57"/>
			</g>
			<g>
				<path class="st1" d="M-56.37,502.69c-1.42,0-2.57,1.15-2.57,2.57c0,1.42,1.15,2.57,2.57,2.57c1.42,0,2.57-1.15,2.57-2.57
					C-53.8,503.84-54.95,502.69-56.37,502.69z"/>
			</g>
		</g>
		<g>
			<g>
				<polygon class="st1" points="-59.2,429.83 -59.68,429.34 -21.27,390.93 93.56,390.93 115.8,413.18 185.5,413.18 185.5,413.86 
					115.51,413.86 93.27,391.62 -20.99,391.62 				"/>
			</g>
			<g>
				<circle class="st1" cx="185.37" cy="413.52" r="2.57"/>
			</g>
			<g>
				<path class="st1" d="M-61.17,427.67c-1.01,1-1.01,2.63,0,3.64c1,1.01,2.63,1.01,3.64,0c1-1,1-2.63,0-3.64
					C-58.53,426.67-60.16,426.67-61.17,427.67z"/>
			</g>
		</g>
		<g>
			<g>
				<polygon class="st1" points="4.59,471.69 -49.08,471.69 -68.02,452.74 -67.54,452.26 -48.79,471 4.3,471 44.34,430.97 
					109.88,430.97 109.88,431.65 44.62,431.65 				"/>
			</g>
			<g>
				<path class="st1" d="M109.75,428.74c1.42,0,2.57,1.15,2.57,2.57c0,1.42-1.15,2.57-2.57,2.57c-1.42,0-2.57-1.15-2.57-2.57
					C107.17,429.89,108.32,428.74,109.75,428.74z"/>
			</g>
			<g>
				<path class="st1" d="M-65.87,450.77c-1-1-2.63-1-3.64,0c-1.01,1-1.01,2.63,0,3.64c1,1.01,2.63,1,3.64,0
					C-64.86,453.41-64.86,451.78-65.87,450.77z"/>
			</g>
		</g>
		<g>
			<g>
				<polygon class="st1" points="-10.43,445.55 -37.59,445.55 -37.59,444.87 -10.71,444.87 19.87,414.29 87.63,414.29 87.63,414.97 
					20.16,414.97 				"/>
			</g>
			<g>
				<path class="st1" d="M87.5,412.06c1.42,0,2.57,1.15,2.57,2.57c0,1.42-1.15,2.57-2.57,2.57c-1.42,0-2.57-1.15-2.57-2.57
					C84.93,413.21,86.08,412.06,87.5,412.06z"/>
			</g>
			<g>
				<circle class="st1" cx="-37.46" cy="445.21" r="2.57"/>
			</g>
		</g>
		<g>
			<g>
				<polygon class="st1" points="-65.87,379.78 -66.35,379.3 -16.82,329.77 113.21,329.77 113.21,330.46 -16.54,330.46 				"/>
			</g>
			<g>
				<path class="st1" d="M113.08,327.54c1.42,0,2.57,1.15,2.57,2.57c0,1.42-1.15,2.57-2.57,2.57c-1.42,0-2.57-1.15-2.57-2.57
					C110.51,328.69,111.66,327.54,113.08,327.54z"/>
			</g>
			<g>
				<path class="st1" d="M-67.84,377.63c-1.01,1-1.01,2.63,0,3.64c1,1,2.63,1,3.64,0c1-1,1-2.63,0-3.64
					C-65.2,376.63-66.83,376.63-67.84,377.63z"/>
			</g>
		</g>
		<g>
			<g>
				<polygon class="st1" points="219.78,357.7 198.92,357.7 138.03,296.82 -50.94,296.82 -50.94,296.13 138.32,296.13 
					199.21,357.02 219.5,357.02 243.4,333.11 309.02,333.11 328.32,313.81 328.8,314.29 309.3,333.79 243.69,333.79 				"/>
			</g>
			<g>
				<path class="st1" d="M326.65,312.32c1.01-1,2.63-1,3.64,0c1,1,1.01,2.63,0,3.64c-1.01,1-2.63,1-3.64,0
					C325.65,314.95,325.65,313.33,326.65,312.32z"/>
			</g>
			<g>
				<circle class="st1" cx="-50.81" cy="296.47" r="2.57"/>
			</g>
		</g>
		<g>
			<g>
				<polygon class="st1" points="217.83,339.07 195.59,339.07 136.78,280.27 -60.95,280.27 -60.95,279.59 137.07,279.59 
					195.87,338.39 217.55,338.39 234.51,321.43 304.01,321.43 321.65,303.8 322.13,304.28 304.3,322.12 234.79,322.12 				"/>
			</g>
			<g>
				<path class="st1" d="M319.98,302.31c1.01-1,2.63-1,3.64,0c1,1,1,2.63,0,3.64c-1.01,1-2.63,1-3.64,0
					C318.97,304.95,318.97,303.32,319.98,302.31z"/>
			</g>
			<g>
				<path class="st1" d="M-60.82,277.36c-1.42,0-2.57,1.15-2.57,2.57c0,1.42,1.15,2.57,2.57,2.57s2.57-1.15,2.57-2.57
					C-58.24,278.51-59.4,277.36-60.82,277.36z"/>
			</g>
		</g>
		<g>
			<g>
				<polygon class="st1" points="216.6,315.28 216.12,314.8 238.96,291.96 310.05,291.96 310.05,292.64 239.24,292.64 				"/>
			</g>
			<g>
				<path class="st1" d="M309.92,289.73c1.42,0,2.57,1.15,2.57,2.57c0,1.42-1.15,2.57-2.57,2.57c-1.42,0-2.57-1.15-2.57-2.57
					C307.35,290.88,308.5,289.73,309.92,289.73z"/>
			</g>
			<g>
				<circle class="st1" cx="216.45" cy="314.95" r="2.57"/>
			</g>
		</g>
		<g>
			<g>
				<polygon class="st1" points="157.69,163.64 87.71,163.64 34.29,110.22 34.78,109.74 88,162.96 157.69,162.96 				"/>
			</g>
			<g>
				<path class="st1" d="M157.57,160.73c1.42,0,2.57,1.15,2.57,2.57c0,1.42-1.15,2.57-2.57,2.57c-1.42,0-2.57-1.15-2.57-2.57
					C154.99,161.88,156.14,160.73,157.57,160.73z"/>
			</g>
			<g>
				<path class="st1" d="M36.44,108.25c-1-1-2.63-1-3.64,0c-1.01,1-1.01,2.63,0,3.64c1.01,1,2.63,1,3.64,0
					C37.45,110.88,37.45,109.25,36.44,108.25z"/>
			</g>
		</g>
		<g>
			<g>
				<polygon class="st1" points="63.92,164.31 29.6,130 -65.12,130 -65.12,129.32 29.89,129.32 64.4,163.83 				"/>
			</g>
			<g>
				<path class="st1" d="M65.89,162.16c1,1.01,1,2.63,0,3.64c-1,1-2.63,1-3.64,0s-1.01-2.63,0-3.64S64.88,161.16,65.89,162.16z"/>
			</g>
			<g>
				<path class="st1" d="M-64.99,127.08c-1.42,0-2.57,1.15-2.57,2.57c0,1.42,1.15,2.57,2.57,2.57c1.42,0,2.57-1.15,2.57-2.57
					C-62.42,128.24-63.57,127.08-64.99,127.08z"/>
			</g>
		</g>
	</g>
	<g style="clip-path:url(#SVGID_00000114050890731178774090000006390049734870815623_);">
		<g>
			<g>
				<polygon class="st1" points="507.17,418.11 611.2,418.11 655.06,461.97 732.38,461.97 793.03,522.61 792.55,523.1 732.1,462.65 
					654.78,462.65 610.92,418.79 507.17,418.79 				"/>
			</g>
			<g>
				<path class="st1" d="M507.3,421.02c-1.42,0-2.57-1.15-2.57-2.57c0-1.42,1.15-2.57,2.57-2.57c1.42,0,2.57,1.15,2.57,2.57
					C509.88,419.87,508.72,421.02,507.3,421.02z"/>
			</g>
			<g>
				<path class="st1" d="M790.88,524.58c1,1,2.63,1,3.64,0c1-1,1-2.63,0-3.64c-1-1-2.63-1-3.64,0
					C789.87,521.95,789.87,523.58,790.88,524.58z"/>
			</g>
		</g>
		<g>
			<g>
				<polygon class="st1" points="828.59,88.04 898.83,88.04 898.83,88.72 828.87,88.72 790.17,127.42 712.85,127.42 668.99,171.28 
					562.66,171.28 523.5,210.44 523.02,209.96 562.38,170.6 668.71,170.6 712.57,126.74 789.89,126.74 				"/>
			</g>
			<g>
				<path class="st1" d="M525.17,211.93c-1.01,1-2.63,1-3.64,0c-1.01-1-1.01-2.63,0-3.64c1.01-1,2.63-1,3.64,0
					C526.18,209.29,526.18,210.92,525.17,211.93z"/>
			</g>
			<g>
				<path class="st1" d="M898.7,90.96c1.42,0,2.57-1.15,2.57-2.57c0-1.42-1.15-2.57-2.57-2.57c-1.42,0-2.57,1.15-2.57,2.57
					C896.13,89.8,897.28,90.96,898.7,90.96z"/>
			</g>
		</g>
		<g>
			<g>
				<polygon class="st1" points="475.32,366.76 510.75,402.19 632.52,402.19 668.94,438.61 717.87,438.61 737.47,419.01 
					885.72,419.01 885.72,419.69 737.75,419.69 718.15,439.29 668.66,439.29 632.24,402.87 510.47,402.87 474.84,367.25 				"/>
			</g>
			<g>
				<path class="st1" d="M473.35,368.92c-1-1-1-2.63,0-3.64c1.01-1,2.63-1,3.64,0c1,1,1,2.63,0,3.64
					C475.99,369.92,474.36,369.92,473.35,368.92z"/>
			</g>
			<g>
				<path class="st1" d="M885.59,421.93c1.42,0,2.57-1.15,2.57-2.57c0-1.42-1.15-2.57-2.57-2.57c-1.42,0-2.57,1.15-2.57,2.57
					C883.02,420.77,884.17,421.93,885.59,421.93z"/>
			</g>
		</g>
		<g>
			<g>
				<polygon class="st1" points="572.24,180.08 613.39,180.08 643.83,210.52 703.47,210.52 733.14,240.2 822.1,240.2 822.1,240.88 
					732.86,240.88 703.18,211.21 643.55,211.21 613.1,180.76 572.52,180.76 530.7,222.58 530.21,222.1 				"/>
			</g>
			<g>
				<path class="st1" d="M532.37,224.07c-1,1-2.63,1-3.64,0c-1.01-1-1.01-2.63,0-3.64c1-1,2.63-1,3.64,0
					C533.37,221.44,533.37,223.06,532.37,224.07z"/>
			</g>
			<g>
				<circle class="st1" cx="821.97" cy="240.54" r="2.57"/>
			</g>
		</g>
		<g>
			<g>
				<polygon class="st1" points="479.77,350.11 514.36,384.7 630.3,384.7 669.08,423.49 704.53,423.49 732.95,395.06 844.57,395.06 
					844.57,395.74 733.24,395.74 704.81,424.17 668.8,424.17 630.02,385.39 514.08,385.39 479.29,350.59 				"/>
			</g>
			<g>
				<path class="st1" d="M844.44,392.83c1.42,0,2.57,1.15,2.57,2.57c0,1.42-1.15,2.57-2.57,2.57c-1.42,0-2.57-1.15-2.57-2.57
					C841.87,393.98,843.02,392.83,844.44,392.83z"/>
			</g>
			<g>
				<path class="st1" d="M481.44,348.62c-1-1-2.63-1-3.64,0c-1,1.01-1,2.63,0,3.64c1.01,1,2.63,1,3.64,0
					C482.45,351.26,482.45,349.63,481.44,348.62z"/>
			</g>
		</g>
		<g>
			<g>
				<polygon class="st1" points="577.47,214 627.84,214 686.21,272.37 806.61,272.37 835.65,243.33 836.13,243.81 806.89,273.05 
					685.93,273.05 627.56,214.68 577.75,214.68 549.12,243.32 497.48,243.32 497.48,242.63 548.83,242.63 				"/>
			</g>
			<g>
				<path class="st1" d="M497.61,245.55c-1.42,0-2.57-1.15-2.57-2.57c0-1.42,1.15-2.57,2.57-2.57c1.42,0,2.57,1.15,2.57,2.57
					C500.19,244.4,499.03,245.55,497.61,245.55z"/>
			</g>
			<g>
				<path class="st1" d="M837.62,245.48c1.01-1,1.01-2.63,0-3.64c-1.01-1.01-2.63-1.01-3.64,0c-1,1-1,2.63,0,3.64
					C834.98,246.49,836.61,246.49,837.62,245.48z"/>
			</g>
		</g>
		<g>
			<g>
				<polygon class="st1" points="566.35,202.04 594.07,202.04 594.07,202.73 566.63,202.73 535.1,234.26 534.61,233.78 				"/>
			</g>
			<g>
				<path class="st1" d="M536.77,235.75c-1,1-2.63,1-3.64,0c-1-1-1-2.63,0-3.64c1-1,2.63-1,3.64,0
					C537.77,233.11,537.77,234.74,536.77,235.75z"/>
			</g>
			<g>
				<path class="st1" d="M593.94,204.96c1.42,0,2.57-1.15,2.57-2.57c0-1.42-1.15-2.57-2.57-2.57c-1.42,0-2.57,1.15-2.57,2.57
					C591.37,203.8,592.52,204.96,593.94,204.96z"/>
			</g>
		</g>
		<g>
			<g>
				<polygon class="st1" points="479.77,329.54 516.87,366.63 621.4,366.63 656.43,401.66 714.53,401.66 744.84,371.36 
					870.51,371.36 907.67,408.51 907.18,409 870.23,372.04 745.12,372.04 714.82,402.35 656.15,402.35 621.12,367.32 516.58,367.32 
					479.29,330.02 				"/>
			</g>
			<g>
				<path class="st1" d="M477.8,331.69c-1-1-1-2.63,0-3.64c1-1.01,2.63-1.01,3.64,0c1.01,1,1.01,2.63,0,3.64
					C480.44,332.7,478.81,332.7,477.8,331.69z"/>
			</g>
			<g>
				<path class="st1" d="M905.51,410.48c1.01,1,2.63,1,3.64,0c1-1,1-2.63,0-3.64c-1.01-1-2.63-1-3.64,0
					C904.51,407.85,904.51,409.48,905.51,410.48z"/>
			</g>
		</g>
		<g>
			<g>
				<polygon class="st1" points="495.34,322.31 525.49,352.45 619.18,352.45 655.74,389.01 712.31,389.01 758.37,342.95 
					758.85,343.44 712.59,389.7 655.45,389.7 618.89,353.14 525.2,353.14 494.86,322.79 				"/>
			</g>
			<g>
				<path class="st1" d="M493.37,324.46c-1.01-1-1.01-2.63,0-3.64c1-1,2.63-1,3.64,0c1.01,1.01,1.01,2.63,0,3.64
					C496,325.47,494.38,325.47,493.37,324.46z"/>
			</g>
			<g>
				<path class="st1" d="M760.34,345.1c1-1,1-2.63,0-3.64c-1-1-2.63-1-3.64,0c-1.01,1-1.01,2.63,0,3.64
					C757.71,346.11,759.34,346.11,760.34,345.1z"/>
			</g>
		</g>
		<g>
			<g>
				<polygon class="st1" points="597.21,231.51 632.29,231.51 699.14,298.36 876.59,298.36 876.59,299.05 698.86,299.05 
					632.01,232.2 597.49,232.2 572.47,257.22 504.63,257.22 475.32,286.53 474.84,286.04 504.35,256.53 572.19,256.53 				"/>
			</g>
			<g>
				<path class="st1" d="M476.99,288.01c-1.01,1-2.63,1-3.64,0c-1.01-1-1.01-2.63,0-3.64c1.01-1,2.63-1,3.64,0
					C478,285.38,478,287.01,476.99,288.01z"/>
			</g>
			<g>
				<path class="st1" d="M876.46,301.28c1.42,0,2.57-1.15,2.57-2.57c0-1.42-1.15-2.57-2.57-2.57c-1.42,0-2.57,1.15-2.57,2.57
					C873.89,300.12,875.04,301.28,876.46,301.28z"/>
			</g>
		</g>
		<g>
			<g>
				<polygon class="st1" points="630.57,311.58 654.4,311.58 654.4,312.27 630.85,312.27 609.17,333.95 528.06,333.95 
					528.06,333.27 608.89,333.27 				"/>
			</g>
			<g>
				<circle class="st1" cx="528.19" cy="333.61" r="2.57"/>
			</g>
			<g>
				<circle class="st1" cx="654.27" cy="311.93" r="2.57"/>
			</g>
		</g>
		<g>
			<g>
				<polygon class="st1" points="632.13,332.87 665.33,366.08 713.34,366.08 713.34,366.76 665.05,366.76 631.64,333.36 				"/>
			</g>
			<g>
				<path class="st1" d="M630.16,335.03c-1-1-1-2.63,0-3.64c1.01-1,2.63-1,3.64,0c1,1,1,2.63,0,3.64
					C632.79,336.03,631.16,336.03,630.16,335.03z"/>
			</g>
			<g>
				<path class="st1" d="M713.21,368.99c1.42,0,2.57-1.15,2.57-2.57c0-1.42-1.15-2.57-2.57-2.57c-1.42,0-2.57,1.15-2.57,2.57
					C710.64,367.84,711.79,368.99,713.21,368.99z"/>
			</g>
		</g>
		<g>
			<g>
				<polygon class="st1" points="654.37,329.54 677.56,352.73 720.02,352.73 720.02,353.41 677.28,353.41 653.89,330.02 				"/>
			</g>
			<g>
				<circle class="st1" cx="654.22" cy="329.87" r="2.57"/>
			</g>
			<g>
				<path class="st1" d="M719.89,355.65c1.42,0,2.57-1.15,2.57-2.57c0-1.42-1.15-2.57-2.57-2.57c-1.42,0-2.57,1.15-2.57,2.57
					C717.31,354.49,718.47,355.65,719.89,355.65z"/>
			</g>
		</g>
		<g>
			<g>
				<rect x="844.78" y="231.76" class="st1" width="29.59" height="0.68"/>
			</g>
			<g>
				<path class="st1" d="M844.91,234.68c-1.42,0-2.57-1.15-2.57-2.57c0-1.42,1.15-2.57,2.57-2.57c1.42,0,2.57,1.15,2.57,2.57
					C847.48,233.53,846.33,234.68,844.91,234.68z"/>
			</g>
			<g>
				<path class="st1" d="M874.24,234.68c1.42,0,2.57-1.15,2.57-2.57c0-1.42-1.15-2.57-2.57-2.57c-1.42,0-2.57,1.15-2.57,2.57
					C871.66,233.53,872.82,234.68,874.24,234.68z"/>
			</g>
		</g>
		<g>
			<g>
				<polygon class="st1" points="670.82,228.03 700.69,257.9 796.52,257.9 796.52,258.58 700.4,258.58 670.34,228.51 				"/>
			</g>
			<g>
				<path class="st1" d="M668.85,230.18c-1-1-1-2.63,0-3.64c1.01-1.01,2.63-1.01,3.64,0c1,1,1,2.63,0,3.64
					C671.48,231.19,669.86,231.19,668.85,230.18z"/>
			</g>
			<g>
				<circle class="st1" cx="796.39" cy="258.24" r="2.57"/>
			</g>
		</g>
		<g>
			<g>
				<polygon class="st1" points="828.29,105.54 893.27,105.54 893.27,106.22 828.58,106.22 779.09,155.71 722.37,155.71 
					690.12,187.96 629.04,187.96 629.04,187.28 689.84,187.28 722.09,155.03 778.81,155.03 				"/>
			</g>
			<g>
				<path class="st1" d="M629.17,190.19c-1.42,0-2.57-1.15-2.57-2.57s1.15-2.57,2.57-2.57c1.42,0,2.57,1.15,2.57,2.57
					S630.59,190.19,629.17,190.19z"/>
			</g>
			<g>
				<path class="st1" d="M893.14,108.46c1.42,0,2.57-1.15,2.57-2.57c0-1.42-1.15-2.57-2.57-2.57c-1.42,0-2.57,1.15-2.57,2.57
					C890.57,107.3,891.72,108.46,893.14,108.46z"/>
			</g>
		</g>
		<g>
			<g>
				<polygon class="st1" points="895.97,181.32 896.45,181.81 858.05,220.21 743.22,220.21 720.98,197.97 651.28,197.97 
					651.28,197.29 721.26,197.29 743.5,219.53 857.76,219.53 				"/>
			</g>
			<g>
				<path class="st1" d="M651.41,200.2c-1.42,0-2.57-1.15-2.57-2.57c0-1.42,1.15-2.57,2.57-2.57c1.42,0,2.57,1.15,2.57,2.57
					C653.98,199.05,652.83,200.2,651.41,200.2z"/>
			</g>
			<g>
				<path class="st1" d="M897.94,183.47c1-1,1-2.63,0-3.64c-1-1-2.63-1-3.64,0c-1.01,1-1.01,2.63,0,3.64
					C895.31,184.48,896.94,184.48,897.94,183.47z"/>
			</g>
		</g>
		<g>
			<g>
				<polygon class="st1" points="832.19,139.46 885.85,139.46 904.79,158.4 904.31,158.89 885.57,140.14 832.47,140.14 
					792.43,180.18 726.9,180.18 726.9,179.49 792.15,179.49 				"/>
			</g>
			<g>
				<circle class="st1" cx="727.03" cy="179.84" r="2.57"/>
			</g>
			<g>
				<path class="st1" d="M902.64,160.37c1.01,1,2.63,1,3.64,0c1-1,1-2.63,0-3.64c-1-1-2.63-1-3.64,0S901.64,159.37,902.64,160.37z"
					/>
			</g>
		</g>
		<g>
			<g>
				<polygon class="st1" points="847.2,165.59 874.37,165.59 874.37,166.28 847.48,166.28 816.9,196.86 749.14,196.86 
					749.14,196.17 816.62,196.17 				"/>
			</g>
			<g>
				<circle class="st1" cx="749.27" cy="196.52" r="2.57"/>
			</g>
			<g>
				<circle class="st1" cx="874.24" cy="165.93" r="2.57"/>
			</g>
		</g>
		<g>
			<g>
				<polygon class="st1" points="902.64,231.36 903.13,231.85 853.6,281.38 723.56,281.38 723.56,280.69 853.31,280.69 				"/>
			</g>
			<g>
				<path class="st1" d="M723.69,283.61c-1.42,0-2.57-1.15-2.57-2.57c0-1.42,1.15-2.57,2.57-2.57c1.42,0,2.57,1.15,2.57,2.57
					C726.26,282.45,725.11,283.61,723.69,283.61z"/>
			</g>
			<g>
				<path class="st1" d="M904.61,233.52c1-1,1-2.63,0-3.64c-1.01-1-2.63-1-3.64,0c-1,1-1,2.63,0,3.64
					C901.98,234.52,903.61,234.52,904.61,233.52z"/>
			</g>
		</g>
		<g>
			<g>
				<polygon class="st1" points="617,253.45 637.85,253.45 698.74,314.33 887.71,314.33 887.71,315.02 698.46,315.02 637.57,254.13 
					617.28,254.13 593.37,278.04 527.76,278.04 508.46,297.34 507.97,296.86 527.47,277.35 593.09,277.35 				"/>
			</g>
			<g>
				<path class="st1" d="M510.12,298.83c-1.01,1-2.63,1-3.64,0c-1-1-1-2.63,0-3.64c1.01-1,2.63-1.01,3.64,0
					C511.13,296.19,511.13,297.82,510.12,298.83z"/>
			</g>
			<g>
				<path class="st1" d="M887.58,317.25c1.42,0,2.57-1.15,2.57-2.57c0-1.42-1.15-2.57-2.57-2.57c-1.42,0-2.57,1.15-2.57,2.57
					C885.01,316.1,886.16,317.25,887.58,317.25z"/>
			</g>
		</g>
		<g>
			<g>
				<polygon class="st1" points="618.94,272.07 641.19,272.07 699.99,330.87 897.72,330.87 897.72,331.56 699.71,331.56 
					640.91,272.76 619.23,272.76 602.27,289.72 532.76,289.72 515.13,307.35 514.64,306.87 532.48,289.03 601.98,289.03 				"/>
			</g>
			<g>
				<path class="st1" d="M516.8,308.84c-1.01,1-2.63,1-3.64,0c-1.01-1-1.01-2.63,0-3.64c1-1,2.63-1,3.64,0
					C517.8,306.2,517.8,307.83,516.8,308.84z"/>
			</g>
			<g>
				<path class="st1" d="M897.59,333.79c1.42,0,2.57-1.15,2.57-2.57c0-1.42-1.15-2.57-2.57-2.57c-1.42,0-2.57,1.15-2.57,2.57
					C895.02,332.64,896.17,333.79,897.59,333.79z"/>
			</g>
		</g>
		<g>
			<g>
				<polygon class="st1" points="620.17,295.86 620.66,296.35 597.82,319.19 526.72,319.19 526.72,318.5 597.53,318.5 				"/>
			</g>
			<g>
				<circle class="st1" cx="526.85" cy="318.84" r="2.57"/>
			</g>
			<g>
				<path class="st1" d="M622.14,298.02c1-1,1-2.63,0-3.64c-1.01-1.01-2.63-1.01-3.64,0c-1,1-1,2.63,0,3.64
					C619.51,299.02,621.14,299.02,622.14,298.02z"/>
			</g>
		</g>
		<g>
			<g>
				<polygon class="st1" points="679.08,447.51 749.06,447.51 802.48,500.93 802,501.41 748.78,448.19 679.08,448.19 				"/>
			</g>
			<g>
				<path class="st1" d="M679.21,450.42c-1.42,0-2.57-1.15-2.57-2.57c0-1.42,1.15-2.57,2.57-2.57c1.42,0,2.57,1.15,2.57,2.57
					C681.78,449.27,680.63,450.42,679.21,450.42z"/>
			</g>
			<g>
				<path class="st1" d="M800.33,502.9c1.01,1,2.63,1,3.64,0c1.01-1,1.01-2.63,0-3.64c-1-1-2.63-1-3.64,0
					C799.33,500.26,799.33,501.89,800.33,502.9z"/>
			</g>
		</g>
		<g>
			<g>
				<polygon class="st1" points="772.86,446.83 807.17,481.15 901.89,481.15 901.89,481.83 806.89,481.83 772.37,447.32 				"/>
			</g>
			<g>
				<path class="st1" d="M770.89,448.99c-1.01-1-1.01-2.63,0-3.64c1-1,2.63-1,3.64,0c1,1,1,2.63,0,3.64
					C773.52,449.99,771.89,449.99,770.89,448.99z"/>
			</g>
			<g>
				<circle class="st1" cx="901.76" cy="481.49" r="2.57"/>
			</g>
		</g>
	</g>
</g>
</svg>
